<svg id="visual" viewBox="0 0 960 125" width="960" height="125" xmlns="http://www.w3.org/2000/svg" xmlns:xlink="http://www.w3.org/1999/xlink" version="1.1"><rect x="0" y="0" width="960" height="125" fill="#ffbd00"></rect><path d="M0 55L22.8 50.2C45.7 45.3 91.3 35.7 137 35C182.7 34.3 228.3 42.7 274 45.5C319.7 48.3 365.3 45.7 411.2 44.5C457 43.3 503 43.7 548.8 40.7C594.7 37.7 640.3 31.3 686 28.8C731.7 26.3 777.3 27.7 823 32.5C868.7 37.3 914.3 45.7 937.2 49.8L960 54L960 126L937.2 126C914.3 126 868.7 126 823 126C777.3 126 731.7 126 686 126C640.3 126 594.7 126 548.8 126C503 126 457 126 411.2 126C365.3 126 319.7 126 274 126C228.3 126 182.7 126 137 126C91.3 126 45.7 126 22.8 126L0 126Z" fill="#ffbd00"></path><path d="M0 49L22.8 53C45.7 57 91.3 65 137 66.2C182.7 67.3 228.3 61.7 274 59.5C319.7 57.3 365.3 58.7 411.2 58C457 57.3 503 54.7 548.8 56.2C594.7 57.7 640.3 63.3 686 61.8C731.7 60.3 777.3 51.7 823 47C868.7 42.3 914.3 41.7 937.2 41.3L960 41L960 126L937.2 126C914.3 126 868.7 126 823 126C777.3 126 731.7 126 686 126C640.3 126 594.7 126 548.8 126C503 126 457 126 411.2 126C365.3 126 319.7 126 274 126C228.3 126 182.7 126 137 126C91.3 126 45.7 126 22.8 126L0 126Z" fill="#e98223"></path><path d="M0 65L22.8 64.5C45.7 64 91.3 63 137 62.2C182.7 61.3 228.3 60.7 274 64.3C319.7 68 365.3 76 411.2 76C457 76 503 68 548.8 63.8C594.7 59.7 640.3 59.3 686 61.5C731.7 63.7 777.3 68.3 823 72.5C868.7 76.7 914.3 80.3 937.2 82.2L960 84L960 126L937.2 126C914.3 126 868.7 126 823 126C777.3 126 731.7 126 686 126C640.3 126 594.7 126 548.8 126C503 126 457 126 411.2 126C365.3 126 319.7 126 274 126C228.3 126 182.7 126 137 126C91.3 126 45.7 126 22.8 126L0 126Z" fill="#c14f30"></path><path d="M0 98L22.8 97C45.7 96 91.3 94 137 91.5C182.7 89 228.3 86 274 83.2C319.7 80.3 365.3 77.7 411.2 80.5C457 83.3 503 91.7 548.8 94.3C594.7 97 640.3 94 686 90.3C731.7 86.7 777.3 82.3 823 81.8C868.7 81.3 914.3 84.7 937.2 86.3L960 88L960 126L937.2 126C914.3 126 868.7 126 823 126C777.3 126 731.7 126 686 126C640.3 126 594.7 126 548.8 126C503 126 457 126 411.2 126C365.3 126 319.7 126 274 126C228.3 126 182.7 126 137 126C91.3 126 45.7 126 22.8 126L0 126Z" fill="#8e2531"></path><path d="M0 109L22.8 108.3C45.7 107.7 91.3 106.3 137 103.8C182.7 101.3 228.3 97.7 274 96.7C319.7 95.7 365.3 97.3 411.2 100C457 102.7 503 106.3 548.8 106.5C594.7 106.7 640.3 103.3 686 103.3C731.7 103.3 777.3 106.7 823 106.3C868.7 106 914.3 102 937.2 100L960 98L960 126L937.2 126C914.3 126 868.7 126 823 126C777.3 126 731.7 126 686 126C640.3 126 594.7 126 548.8 126C503 126 457 126 411.2 126C365.3 126 319.7 126 274 126C228.3 126 182.7 126 137 126C91.3 126 45.7 126 22.8 126L0 126Z" fill="#550527"></path></svg>