<svg id="visual" viewBox="0 0 960 300" width="960" height="300" xmlns="http://www.w3.org/2000/svg" xmlns:xlink="http://www.w3.org/1999/xlink" version="1.1"><g transform="translate(480.98598250415154 153.50724174613356)"><path d="M44.9 -79.8C51.5 -65.5 45.8 -41.9 40.9 -26.4C36 -10.9 31.9 -3.4 36.3 9.2C40.7 21.9 53.6 39.8 51.7 48.2C49.7 56.6 32.9 55.7 16.5 64.1C0.1 72.4 -15.8 90.2 -28.4 89.7C-41 89.2 -50.4 70.5 -53 53.6C-55.6 36.8 -51.6 21.8 -50.4 9.2C-49.3 -3.5 -51 -13.8 -50.5 -26.4C-49.9 -39.1 -47.1 -54 -38.3 -67.3C-29.6 -80.7 -14.8 -92.3 2.2 -95.7C19.1 -99.1 38.2 -94.1 44.9 -79.8" fill="#BB004B"></path></g></svg>