<svg id="visual" viewBox="0 0 900 900" width="900" height="900" xmlns="http://www.w3.org/2000/svg" xmlns:xlink="http://www.w3.org/1999/xlink" version="1.1"><g transform="translate(460.422435880181 484.3239168824414)"><path d="M108.2 -180.9C123.1 -158.8 106.1 -99.8 108.8 -59.7C111.6 -19.6 134 1.4 149.3 34.4C164.7 67.4 173.1 112.3 154.9 135.4C136.7 158.5 92 159.9 53.1 163.2C14.2 166.6 -19 172.1 -45.2 161.1C-71.5 150.2 -90.9 122.9 -96.2 95.3C-101.4 67.7 -92.5 39.9 -107.3 8.8C-122.1 -22.3 -160.6 -56.6 -177.1 -106C-193.6 -155.3 -188 -219.6 -154.8 -233.3C-121.6 -246.9 -60.8 -210 -7.1 -199C46.7 -188 93.4 -202.9 108.2 -180.9" fill="#262730"></path></g></svg>