<svg id="visual" viewBox="0 0 900 900" width="900" height="900" xmlns="http://www.w3.org/2000/svg" xmlns:xlink="http://www.w3.org/1999/xlink" version="1.1"><g transform="translate(423.1083995105587 430.7103056582008)"><path d="M122.5 -176.4C173.7 -157.8 240.3 -149 265.7 -115C291.1 -81 275.2 -21.9 234.7 10.7C194.1 43.3 129 49.3 94.6 73.3C60.3 97.3 56.8 139.3 30.4 183.7C4 228 -45.2 274.7 -88.9 274.7C-132.7 274.8 -171 228.1 -195 180.2C-219.1 132.4 -228.8 83.3 -222.1 40.2C-215.4 -2.9 -192.3 -40.1 -176.3 -82.8C-160.4 -125.5 -151.5 -173.8 -123.4 -202.9C-95.2 -232.1 -47.6 -242 -5.9 -232.8C35.7 -223.5 71.4 -195 122.5 -176.4" fill="#262730"></path></g></svg>