<svg id="visual" viewBox="0 0 960 300" width="960" height="300" xmlns="http://www.w3.org/2000/svg" xmlns:xlink="http://www.w3.org/1999/xlink" version="1.1"><g transform="translate(467.467936445287 141.394952776351)"><path d="M40.5 -50.9C57.5 -52 79.9 -49.4 82 -39.1C84.1 -28.9 65.8 -11 57 4C48.3 19 49.1 31.1 45.3 44C41.5 57 33.2 70.7 23.5 68C13.9 65.3 3 46.1 -7.2 37.3C-17.4 28.5 -26.8 30 -30.6 26.2C-34.4 22.4 -32.5 13.4 -38.2 2.8C-43.8 -7.7 -56.9 -19.9 -57.1 -28.9C-57.3 -37.9 -44.6 -43.8 -32.9 -45.1C-21.3 -46.4 -10.6 -43.2 0.5 -44.1C11.7 -44.9 23.4 -49.8 40.5 -50.9" fill="#BB004B"></path></g></svg>