<svg id="visual" viewBox="0 0 960 125" width="960" height="125" xmlns="http://www.w3.org/2000/svg" xmlns:xlink="http://www.w3.org/1999/xlink" version="1.1"><rect x="0" y="0" width="960" height="125" fill="#c1666b"></rect><path d="M0 39L22.8 41.8C45.7 44.7 91.3 50.3 137 51.2C182.7 52 228.3 48 274 46.8C319.7 45.7 365.3 47.3 411.2 48C457 48.7 503 48.3 548.8 50C594.7 51.7 640.3 55.3 686 52.7C731.7 50 777.3 41 823 37.3C868.7 33.7 914.3 35.3 937.2 36.2L960 37L960 126L937.2 126C914.3 126 868.7 126 823 126C777.3 126 731.7 126 686 126C640.3 126 594.7 126 548.8 126C503 126 457 126 411.2 126C365.3 126 319.7 126 274 126C228.3 126 182.7 126 137 126C91.3 126 45.7 126 22.8 126L0 126Z" fill="#c1666b"></path><path d="M0 61L22.8 61C45.7 61 91.3 61 137 61.8C182.7 62.7 228.3 64.3 274 64.3C319.7 64.3 365.3 62.7 411.2 59C457 55.3 503 49.7 548.8 48C594.7 46.3 640.3 48.7 686 49.7C731.7 50.7 777.3 50.3 823 49C868.7 47.7 914.3 45.3 937.2 44.2L960 43L960 126L937.2 126C914.3 126 868.7 126 823 126C777.3 126 731.7 126 686 126C640.3 126 594.7 126 548.8 126C503 126 457 126 411.2 126C365.3 126 319.7 126 274 126C228.3 126 182.7 126 137 126C91.3 126 45.7 126 22.8 126L0 126Z" fill="#a54e59"></path><path d="M0 57L22.8 61.2C45.7 65.3 91.3 73.7 137 74.5C182.7 75.3 228.3 68.7 274 69C319.7 69.3 365.3 76.7 411.2 77.5C457 78.3 503 72.7 548.8 71.8C594.7 71 640.3 75 686 77C731.7 79 777.3 79 823 76.5C868.7 74 914.3 69 937.2 66.5L960 64L960 126L937.2 126C914.3 126 868.7 126 823 126C777.3 126 731.7 126 686 126C640.3 126 594.7 126 548.8 126C503 126 457 126 411.2 126C365.3 126 319.7 126 274 126C228.3 126 182.7 126 137 126C91.3 126 45.7 126 22.8 126L0 126Z" fill="#8a3748"></path><path d="M0 75L22.8 79.2C45.7 83.3 91.3 91.7 137 94.5C182.7 97.3 228.3 94.7 274 90.7C319.7 86.7 365.3 81.3 411.2 80.3C457 79.3 503 82.7 548.8 83.8C594.7 85 640.3 84 686 85.3C731.7 86.7 777.3 90.3 823 90.2C868.7 90 914.3 86 937.2 84L960 82L960 126L937.2 126C914.3 126 868.7 126 823 126C777.3 126 731.7 126 686 126C640.3 126 594.7 126 548.8 126C503 126 457 126 411.2 126C365.3 126 319.7 126 274 126C228.3 126 182.7 126 137 126C91.3 126 45.7 126 22.8 126L0 126Z" fill="#6f2037"></path><path d="M0 110L22.8 108.2C45.7 106.3 91.3 102.7 137 101.3C182.7 100 228.3 101 274 102C319.7 103 365.3 104 411.2 103.8C457 103.7 503 102.3 548.8 102C594.7 101.7 640.3 102.3 686 101.2C731.7 100 777.3 97 823 98.7C868.7 100.3 914.3 106.7 937.2 109.8L960 113L960 126L937.2 126C914.3 126 868.7 126 823 126C777.3 126 731.7 126 686 126C640.3 126 594.7 126 548.8 126C503 126 457 126 411.2 126C365.3 126 319.7 126 274 126C228.3 126 182.7 126 137 126C91.3 126 45.7 126 22.8 126L0 126Z" fill="#550527"></path></svg>