<svg id="visual" viewBox="0 0 960 125" width="960" height="125" xmlns="http://www.w3.org/2000/svg" xmlns:xlink="http://www.w3.org/1999/xlink" version="1.1"><rect x="0" y="0" width="960" height="125" fill="#c1666b"></rect><path d="M0 32L22.8 31C45.7 30 91.3 28 137 27.5C182.7 27 228.3 28 274 31.7C319.7 35.3 365.3 41.7 411.2 41.7C457 41.7 503 35.3 548.8 33C594.7 30.7 640.3 32.3 686 33C731.7 33.7 777.3 33.3 823 31.5C868.7 29.7 914.3 26.3 937.2 24.7L960 23L960 126L937.2 126C914.3 126 868.7 126 823 126C777.3 126 731.7 126 686 126C640.3 126 594.7 126 548.8 126C503 126 457 126 411.2 126C365.3 126 319.7 126 274 126C228.3 126 182.7 126 137 126C91.3 126 45.7 126 22.8 126L0 126Z" fill="#c1666b"></path><path d="M0 70L22.8 65.3C45.7 60.7 91.3 51.3 137 51.5C182.7 51.7 228.3 61.3 274 61.3C319.7 61.3 365.3 51.7 411.2 46.7C457 41.7 503 41.3 548.8 45.5C594.7 49.7 640.3 58.3 686 63.5C731.7 68.7 777.3 70.3 823 66C868.7 61.7 914.3 51.3 937.2 46.2L960 41L960 126L937.2 126C914.3 126 868.7 126 823 126C777.3 126 731.7 126 686 126C640.3 126 594.7 126 548.8 126C503 126 457 126 411.2 126C365.3 126 319.7 126 274 126C228.3 126 182.7 126 137 126C91.3 126 45.7 126 22.8 126L0 126Z" fill="#98546c"></path><path d="M0 82L22.8 79.7C45.7 77.3 91.3 72.7 137 70.7C182.7 68.7 228.3 69.3 274 69.5C319.7 69.7 365.3 69.3 411.2 67.5C457 65.7 503 62.3 548.8 63.3C594.7 64.3 640.3 69.7 686 74.3C731.7 79 777.3 83 823 80.8C868.7 78.7 914.3 70.3 937.2 66.2L960 62L960 126L937.2 126C914.3 126 868.7 126 823 126C777.3 126 731.7 126 686 126C640.3 126 594.7 126 548.8 126C503 126 457 126 411.2 126C365.3 126 319.7 126 274 126C228.3 126 182.7 126 137 126C91.3 126 45.7 126 22.8 126L0 126Z" fill="#6b4662"></path><path d="M0 94L22.8 91.5C45.7 89 91.3 84 137 81.5C182.7 79 228.3 79 274 79.5C319.7 80 365.3 81 411.2 84C457 87 503 92 548.8 93.3C594.7 94.7 640.3 92.3 686 91.8C731.7 91.3 777.3 92.7 823 90.7C868.7 88.7 914.3 83.3 937.2 80.7L960 78L960 126L937.2 126C914.3 126 868.7 126 823 126C777.3 126 731.7 126 686 126C640.3 126 594.7 126 548.8 126C503 126 457 126 411.2 126C365.3 126 319.7 126 274 126C228.3 126 182.7 126 137 126C91.3 126 45.7 126 22.8 126L0 126Z" fill="#43384d"></path><path d="M0 109L22.8 108.3C45.7 107.7 91.3 106.3 137 105.5C182.7 104.7 228.3 104.3 274 104C319.7 103.7 365.3 103.3 411.2 103.3C457 103.3 503 103.7 548.8 104.3C594.7 105 640.3 106 686 105.5C731.7 105 777.3 103 823 102.8C868.7 102.7 914.3 104.3 937.2 105.2L960 106L960 126L937.2 126C914.3 126 868.7 126 823 126C777.3 126 731.7 126 686 126C640.3 126 594.7 126 548.8 126C503 126 457 126 411.2 126C365.3 126 319.7 126 274 126C228.3 126 182.7 126 137 126C91.3 126 45.7 126 22.8 126L0 126Z" fill="#262730"></path></svg>