<svg id="visual" viewBox="0 0 960 125" width="960" height="125" xmlns="http://www.w3.org/2000/svg" xmlns:xlink="http://www.w3.org/1999/xlink" version="1.1"><rect x="0" y="0" width="960" height="125" fill="#262730"></rect><path d="M0 34L22.8 34.2C45.7 34.3 91.3 34.7 137 38.7C182.7 42.7 228.3 50.3 274 50.5C319.7 50.7 365.3 43.3 411.2 37.3C457 31.3 503 26.7 548.8 26.8C594.7 27 640.3 32 686 34.8C731.7 37.7 777.3 38.3 823 37.2C868.7 36 914.3 33 937.2 31.5L960 30L960 126L937.2 126C914.3 126 868.7 126 823 126C777.3 126 731.7 126 686 126C640.3 126 594.7 126 548.8 126C503 126 457 126 411.2 126C365.3 126 319.7 126 274 126C228.3 126 182.7 126 137 126C91.3 126 45.7 126 22.8 126L0 126Z" fill="#262730"></path><path d="M0 67L22.8 67.2C45.7 67.3 91.3 67.7 137 66C182.7 64.3 228.3 60.7 274 57.3C319.7 54 365.3 51 411.2 52.5C457 54 503 60 548.8 64C594.7 68 640.3 70 686 65.5C731.7 61 777.3 50 823 46.7C868.7 43.3 914.3 47.7 937.2 49.8L960 52L960 126L937.2 126C914.3 126 868.7 126 823 126C777.3 126 731.7 126 686 126C640.3 126 594.7 126 548.8 126C503 126 457 126 411.2 126C365.3 126 319.7 126 274 126C228.3 126 182.7 126 137 126C91.3 126 45.7 126 22.8 126L0 126Z" fill="#624062"></path><path d="M0 71L22.8 69.7C45.7 68.3 91.3 65.7 137 68.2C182.7 70.7 228.3 78.3 274 80.7C319.7 83 365.3 80 411.2 75.2C457 70.3 503 63.7 548.8 62C594.7 60.3 640.3 63.7 686 64.2C731.7 64.7 777.3 62.3 823 63.5C868.7 64.7 914.3 69.3 937.2 71.7L960 74L960 126L937.2 126C914.3 126 868.7 126 823 126C777.3 126 731.7 126 686 126C640.3 126 594.7 126 548.8 126C503 126 457 126 411.2 126C365.3 126 319.7 126 274 126C228.3 126 182.7 126 137 126C91.3 126 45.7 126 22.8 126L0 126Z" fill="#b7506e"></path><path d="M0 77L22.8 79.7C45.7 82.3 91.3 87.7 137 88.5C182.7 89.3 228.3 85.7 274 85.3C319.7 85 365.3 88 411.2 90.2C457 92.3 503 93.7 548.8 94.3C594.7 95 640.3 95 686 95.7C731.7 96.3 777.3 97.7 823 95C868.7 92.3 914.3 85.7 937.2 82.3L960 79L960 126L937.2 126C914.3 126 868.7 126 823 126C777.3 126 731.7 126 686 126C640.3 126 594.7 126 548.8 126C503 126 457 126 411.2 126C365.3 126 319.7 126 274 126C228.3 126 182.7 126 137 126C91.3 126 45.7 126 22.8 126L0 126Z" fill="#f77650"></path><path d="M0 113L22.8 110.5C45.7 108 91.3 103 137 100C182.7 97 228.3 96 274 98.2C319.7 100.3 365.3 105.7 411.2 105.5C457 105.3 503 99.7 548.8 97.5C594.7 95.3 640.3 96.7 686 99.5C731.7 102.3 777.3 106.7 823 106.3C868.7 106 914.3 101 937.2 98.5L960 96L960 126L937.2 126C914.3 126 868.7 126 823 126C777.3 126 731.7 126 686 126C640.3 126 594.7 126 548.8 126C503 126 457 126 411.2 126C365.3 126 319.7 126 274 126C228.3 126 182.7 126 137 126C91.3 126 45.7 126 22.8 126L0 126Z" fill="#ffbd00"></path></svg>