<svg id="visual" viewBox="0 0 960 125" width="960" height="125" xmlns="http://www.w3.org/2000/svg" xmlns:xlink="http://www.w3.org/1999/xlink" version="1.1"><rect x="0" y="0" width="960" height="125" fill="#628395"></rect><path d="M0 38L22.8 40.7C45.7 43.3 91.3 48.7 137 50.8C182.7 53 228.3 52 274 48.8C319.7 45.7 365.3 40.3 411.2 35.2C457 30 503 25 548.8 27.7C594.7 30.3 640.3 40.7 686 41.7C731.7 42.7 777.3 34.3 823 32.5C868.7 30.7 914.3 35.3 937.2 37.7L960 40L960 126L937.2 126C914.3 126 868.7 126 823 126C777.3 126 731.7 126 686 126C640.3 126 594.7 126 548.8 126C503 126 457 126 411.2 126C365.3 126 319.7 126 274 126C228.3 126 182.7 126 137 126C91.3 126 45.7 126 22.8 126L0 126Z" fill="#628395"></path><path d="M0 55L22.8 53.7C45.7 52.3 91.3 49.7 137 47.2C182.7 44.7 228.3 42.3 274 45C319.7 47.7 365.3 55.3 411.2 55.3C457 55.3 503 47.7 548.8 47C594.7 46.3 640.3 52.7 686 56.5C731.7 60.3 777.3 61.7 823 61.8C868.7 62 914.3 61 937.2 60.5L960 60L960 126L937.2 126C914.3 126 868.7 126 823 126C777.3 126 731.7 126 686 126C640.3 126 594.7 126 548.8 126C503 126 457 126 411.2 126C365.3 126 319.7 126 274 126C228.3 126 182.7 126 137 126C91.3 126 45.7 126 22.8 126L0 126Z" fill="#6e7fa3"></path><path d="M0 60L22.8 62.3C45.7 64.7 91.3 69.3 137 73.2C182.7 77 228.3 80 274 79.7C319.7 79.3 365.3 75.7 411.2 72.7C457 69.7 503 67.3 548.8 66.7C594.7 66 640.3 67 686 68.7C731.7 70.3 777.3 72.7 823 73.8C868.7 75 914.3 75 937.2 75L960 75L960 126L937.2 126C914.3 126 868.7 126 823 126C777.3 126 731.7 126 686 126C640.3 126 594.7 126 548.8 126C503 126 457 126 411.2 126C365.3 126 319.7 126 274 126C228.3 126 182.7 126 137 126C91.3 126 45.7 126 22.8 126L0 126Z" fill="#8e76a3"></path><path d="M0 96L22.8 93.3C45.7 90.7 91.3 85.3 137 85.7C182.7 86 228.3 92 274 93C319.7 94 365.3 90 411.2 89.8C457 89.7 503 93.3 548.8 94.7C594.7 96 640.3 95 686 93.8C731.7 92.7 777.3 91.3 823 88.7C868.7 86 914.3 82 937.2 80L960 78L960 126L937.2 126C914.3 126 868.7 126 823 126C777.3 126 731.7 126 686 126C640.3 126 594.7 126 548.8 126C503 126 457 126 411.2 126C365.3 126 319.7 126 274 126C228.3 126 182.7 126 137 126C91.3 126 45.7 126 22.8 126L0 126Z" fill="#af6b8f"></path><path d="M0 110L22.8 107.5C45.7 105 91.3 100 137 97.7C182.7 95.3 228.3 95.7 274 97.5C319.7 99.3 365.3 102.7 411.2 103.3C457 104 503 102 548.8 101.5C594.7 101 640.3 102 686 103C731.7 104 777.3 105 823 104.8C868.7 104.7 914.3 103.3 937.2 102.7L960 102L960 126L937.2 126C914.3 126 868.7 126 823 126C777.3 126 731.7 126 686 126C640.3 126 594.7 126 548.8 126C503 126 457 126 411.2 126C365.3 126 319.7 126 274 126C228.3 126 182.7 126 137 126C91.3 126 45.7 126 22.8 126L0 126Z" fill="#c1666b"></path></svg>