<svg id="visual" viewBox="0 0 960 125" width="960" height="125" xmlns="http://www.w3.org/2000/svg" xmlns:xlink="http://www.w3.org/1999/xlink" version="1.1"><rect x="0" y="0" width="960" height="125" fill="#550527"></rect><path d="M0 25L22.8 25.7C45.7 26.3 91.3 27.7 137 33.2C182.7 38.7 228.3 48.3 274 50.8C319.7 53.3 365.3 48.7 411.2 43.7C457 38.7 503 33.3 548.8 34C594.7 34.7 640.3 41.3 686 45.7C731.7 50 777.3 52 823 47.5C868.7 43 914.3 32 937.2 26.5L960 21L960 126L937.2 126C914.3 126 868.7 126 823 126C777.3 126 731.7 126 686 126C640.3 126 594.7 126 548.8 126C503 126 457 126 411.2 126C365.3 126 319.7 126 274 126C228.3 126 182.7 126 137 126C91.3 126 45.7 126 22.8 126L0 126Z" fill="#550527"></path><path d="M0 58L22.8 60.3C45.7 62.7 91.3 67.3 137 64.7C182.7 62 228.3 52 274 48.2C319.7 44.3 365.3 46.7 411.2 52C457 57.3 503 65.7 548.8 68.7C594.7 71.7 640.3 69.3 686 64.7C731.7 60 777.3 53 823 48.5C868.7 44 914.3 42 937.2 41L960 40L960 126L937.2 126C914.3 126 868.7 126 823 126C777.3 126 731.7 126 686 126C640.3 126 594.7 126 548.8 126C503 126 457 126 411.2 126C365.3 126 319.7 126 274 126C228.3 126 182.7 126 137 126C91.3 126 45.7 126 22.8 126L0 126Z" fill="#481534"></path><path d="M0 69L22.8 70.7C45.7 72.3 91.3 75.7 137 74.2C182.7 72.7 228.3 66.3 274 66.8C319.7 67.3 365.3 74.7 411.2 74.2C457 73.7 503 65.3 548.8 63.2C594.7 61 640.3 65 686 68.2C731.7 71.3 777.3 73.7 823 76.2C868.7 78.7 914.3 81.3 937.2 82.7L960 84L960 126L937.2 126C914.3 126 868.7 126 823 126C777.3 126 731.7 126 686 126C640.3 126 594.7 126 548.8 126C503 126 457 126 411.2 126C365.3 126 319.7 126 274 126C228.3 126 182.7 126 137 126C91.3 126 45.7 126 22.8 126L0 126Z" fill="#391f3a"></path><path d="M0 82L22.8 83.3C45.7 84.7 91.3 87.3 137 89.7C182.7 92 228.3 94 274 93.8C319.7 93.7 365.3 91.3 411.2 88.7C457 86 503 83 548.8 81.2C594.7 79.3 640.3 78.7 686 80.3C731.7 82 777.3 86 823 86.3C868.7 86.7 914.3 83.3 937.2 81.7L960 80L960 126L937.2 126C914.3 126 868.7 126 823 126C777.3 126 731.7 126 686 126C640.3 126 594.7 126 548.8 126C503 126 457 126 411.2 126C365.3 126 319.7 126 274 126C228.3 126 182.7 126 137 126C91.3 126 45.7 126 22.8 126L0 126Z" fill="#2c2538"></path><path d="M0 104L22.8 104.2C45.7 104.3 91.3 104.7 137 106C182.7 107.3 228.3 109.7 274 107.8C319.7 106 365.3 100 411.2 98.7C457 97.3 503 100.7 548.8 102.5C594.7 104.3 640.3 104.7 686 104.3C731.7 104 777.3 103 823 101.3C868.7 99.7 914.3 97.3 937.2 96.2L960 95L960 126L937.2 126C914.3 126 868.7 126 823 126C777.3 126 731.7 126 686 126C640.3 126 594.7 126 548.8 126C503 126 457 126 411.2 126C365.3 126 319.7 126 274 126C228.3 126 182.7 126 137 126C91.3 126 45.7 126 22.8 126L0 126Z" fill="#262730"></path></svg>