<svg id="visual" viewBox="0 0 960 125" width="960" height="125" xmlns="http://www.w3.org/2000/svg" xmlns:xlink="http://www.w3.org/1999/xlink" version="1.1"><rect x="0" y="0" width="960" height="125" fill="#550527"></rect><path d="M0 42L22.8 44.5C45.7 47 91.3 52 137 51C182.7 50 228.3 43 274 41.2C319.7 39.3 365.3 42.7 411.2 46.2C457 49.7 503 53.3 548.8 52.8C594.7 52.3 640.3 47.7 686 44.2C731.7 40.7 777.3 38.3 823 37.3C868.7 36.3 914.3 36.7 937.2 36.8L960 37L960 126L937.2 126C914.3 126 868.7 126 823 126C777.3 126 731.7 126 686 126C640.3 126 594.7 126 548.8 126C503 126 457 126 411.2 126C365.3 126 319.7 126 274 126C228.3 126 182.7 126 137 126C91.3 126 45.7 126 22.8 126L0 126Z" fill="#550527"></path><path d="M0 41L22.8 45.3C45.7 49.7 91.3 58.3 137 59.5C182.7 60.7 228.3 54.3 274 53C319.7 51.7 365.3 55.3 411.2 57C457 58.7 503 58.3 548.8 59.3C594.7 60.3 640.3 62.7 686 61.2C731.7 59.7 777.3 54.3 823 55C868.7 55.7 914.3 62.3 937.2 65.7L960 69L960 126L937.2 126C914.3 126 868.7 126 823 126C777.3 126 731.7 126 686 126C640.3 126 594.7 126 548.8 126C503 126 457 126 411.2 126C365.3 126 319.7 126 274 126C228.3 126 182.7 126 137 126C91.3 126 45.7 126 22.8 126L0 126Z" fill="#6f2037"></path><path d="M0 76L22.8 77.3C45.7 78.7 91.3 81.3 137 81.5C182.7 81.7 228.3 79.3 274 75.2C319.7 71 365.3 65 411.2 62C457 59 503 59 548.8 62C594.7 65 640.3 71 686 75.7C731.7 80.3 777.3 83.7 823 85.3C868.7 87 914.3 87 937.2 87L960 87L960 126L937.2 126C914.3 126 868.7 126 823 126C777.3 126 731.7 126 686 126C640.3 126 594.7 126 548.8 126C503 126 457 126 411.2 126C365.3 126 319.7 126 274 126C228.3 126 182.7 126 137 126C91.3 126 45.7 126 22.8 126L0 126Z" fill="#8a3748"></path><path d="M0 77L22.8 78.3C45.7 79.7 91.3 82.3 137 83.5C182.7 84.7 228.3 84.3 274 84.5C319.7 84.7 365.3 85.3 411.2 86.3C457 87.3 503 88.7 548.8 88C594.7 87.3 640.3 84.7 686 85.7C731.7 86.7 777.3 91.3 823 94C868.7 96.7 914.3 97.3 937.2 97.7L960 98L960 126L937.2 126C914.3 126 868.7 126 823 126C777.3 126 731.7 126 686 126C640.3 126 594.7 126 548.8 126C503 126 457 126 411.2 126C365.3 126 319.7 126 274 126C228.3 126 182.7 126 137 126C91.3 126 45.7 126 22.8 126L0 126Z" fill="#a54e59"></path><path d="M0 105L22.8 105.3C45.7 105.7 91.3 106.3 137 106.5C182.7 106.7 228.3 106.3 274 104.3C319.7 102.3 365.3 98.7 411.2 96.5C457 94.3 503 93.7 548.8 96.3C594.7 99 640.3 105 686 105C731.7 105 777.3 99 823 96C868.7 93 914.3 93 937.2 93L960 93L960 126L937.2 126C914.3 126 868.7 126 823 126C777.3 126 731.7 126 686 126C640.3 126 594.7 126 548.8 126C503 126 457 126 411.2 126C365.3 126 319.7 126 274 126C228.3 126 182.7 126 137 126C91.3 126 45.7 126 22.8 126L0 126Z" fill="#c1666b"></path></svg>