<svg id="visual" viewBox="0 0 900 600" width="900" height="600" xmlns="http://www.w3.org/2000/svg" xmlns:xlink="http://www.w3.org/1999/xlink" version="1.1"><path d="M0 405L21.5 405.3C43 405.7 86 406.3 128.8 402.2C171.7 398 214.3 389 257.2 388.5C300 388 343 396 385.8 396.2C428.7 396.3 471.3 388.7 514.2 389.8C557 391 600 401 642.8 404.8C685.7 408.7 728.3 406.3 771.2 402.3C814 398.3 857 392.7 878.5 389.8L900 387L900 601L878.5 601C857 601 814 601 771.2 601C728.3 601 685.7 601 642.8 601C600 601 557 601 514.2 601C471.3 601 428.7 601 385.8 601C343 601 300 601 257.2 601C214.3 601 171.7 601 128.8 601C86 601 43 601 21.5 601L0 601Z" fill="#ffbd00"></path><path d="M0 417L21.5 422.2C43 427.3 86 437.7 128.8 439C171.7 440.3 214.3 432.7 257.2 428.8C300 425 343 425 385.8 425.7C428.7 426.3 471.3 427.7 514.2 436.3C557 445 600 461 642.8 457.3C685.7 453.7 728.3 430.3 771.2 430.2C814 430 857 453 878.5 464.5L900 476L900 601L878.5 601C857 601 814 601 771.2 601C728.3 601 685.7 601 642.8 601C600 601 557 601 514.2 601C471.3 601 428.7 601 385.8 601C343 601 300 601 257.2 601C214.3 601 171.7 601 128.8 601C86 601 43 601 21.5 601L0 601Z" fill="#e98223"></path><path d="M0 438L21.5 449.5C43 461 86 484 128.8 486.3C171.7 488.7 214.3 470.3 257.2 460.7C300 451 343 450 385.8 455.5C428.7 461 471.3 473 514.2 479C557 485 600 485 642.8 484.7C685.7 484.3 728.3 483.7 771.2 476.7C814 469.7 857 456.3 878.5 449.7L900 443L900 601L878.5 601C857 601 814 601 771.2 601C728.3 601 685.7 601 642.8 601C600 601 557 601 514.2 601C471.3 601 428.7 601 385.8 601C343 601 300 601 257.2 601C214.3 601 171.7 601 128.8 601C86 601 43 601 21.5 601L0 601Z" fill="#c14f30"></path><path d="M0 510L21.5 514.8C43 519.7 86 529.3 128.8 526C171.7 522.7 214.3 506.3 257.2 506.8C300 507.3 343 524.7 385.8 524C428.7 523.3 471.3 504.7 514.2 499.8C557 495 600 504 642.8 511.2C685.7 518.3 728.3 523.7 771.2 527.3C814 531 857 533 878.5 534L900 535L900 601L878.5 601C857 601 814 601 771.2 601C728.3 601 685.7 601 642.8 601C600 601 557 601 514.2 601C471.3 601 428.7 601 385.8 601C343 601 300 601 257.2 601C214.3 601 171.7 601 128.8 601C86 601 43 601 21.5 601L0 601Z" fill="#8e2531"></path><path d="M0 551L21.5 550.3C43 549.7 86 548.3 128.8 548.7C171.7 549 214.3 551 257.2 547.7C300 544.3 343 535.7 385.8 532.2C428.7 528.7 471.3 530.3 514.2 532.2C557 534 600 536 642.8 537C685.7 538 728.3 538 771.2 535.7C814 533.3 857 528.7 878.5 526.3L900 524L900 601L878.5 601C857 601 814 601 771.2 601C728.3 601 685.7 601 642.8 601C600 601 557 601 514.2 601C471.3 601 428.7 601 385.8 601C343 601 300 601 257.2 601C214.3 601 171.7 601 128.8 601C86 601 43 601 21.5 601L0 601Z" fill="#550527"></path></svg>