<svg id="visual" viewBox="0 0 900 600" width="900" height="600" xmlns="http://www.w3.org/2000/svg" xmlns:xlink="http://www.w3.org/1999/xlink" version="1.1"><path d="M0 355L21.5 359C43 363 86 371 128.8 377.5C171.7 384 214.3 389 257.2 400.2C300 411.3 343 428.7 385.8 426.2C428.7 423.7 471.3 401.3 514.2 393.7C557 386 600 393 642.8 392.2C685.7 391.3 728.3 382.7 771.2 388.7C814 394.7 857 415.3 878.5 425.7L900 436L900 601L878.5 601C857 601 814 601 771.2 601C728.3 601 685.7 601 642.8 601C600 601 557 601 514.2 601C471.3 601 428.7 601 385.8 601C343 601 300 601 257.2 601C214.3 601 171.7 601 128.8 601C86 601 43 601 21.5 601L0 601Z" fill="#ffbd00"></path><path d="M0 395L21.5 408.5C43 422 86 449 128.8 454.5C171.7 460 214.3 444 257.2 441.5C300 439 343 450 385.8 445.3C428.7 440.7 471.3 420.3 514.2 412.3C557 404.3 600 408.7 642.8 417.8C685.7 427 728.3 441 771.2 449.5C814 458 857 461 878.5 462.5L900 464L900 601L878.5 601C857 601 814 601 771.2 601C728.3 601 685.7 601 642.8 601C600 601 557 601 514.2 601C471.3 601 428.7 601 385.8 601C343 601 300 601 257.2 601C214.3 601 171.7 601 128.8 601C86 601 43 601 21.5 601L0 601Z" fill="#e98223"></path><path d="M0 457L21.5 460.3C43 463.7 86 470.3 128.8 479.3C171.7 488.3 214.3 499.7 257.2 495.8C300 492 343 473 385.8 464.5C428.7 456 471.3 458 514.2 463.8C557 469.7 600 479.3 642.8 477.8C685.7 476.3 728.3 463.7 771.2 461C814 458.3 857 465.7 878.5 469.3L900 473L900 601L878.5 601C857 601 814 601 771.2 601C728.3 601 685.7 601 642.8 601C600 601 557 601 514.2 601C471.3 601 428.7 601 385.8 601C343 601 300 601 257.2 601C214.3 601 171.7 601 128.8 601C86 601 43 601 21.5 601L0 601Z" fill="#c14f30"></path><path d="M0 520L21.5 523.3C43 526.7 86 533.3 128.8 535.3C171.7 537.3 214.3 534.7 257.2 528.7C300 522.7 343 513.3 385.8 513C428.7 512.7 471.3 521.3 514.2 526C557 530.7 600 531.3 642.8 525.2C685.7 519 728.3 506 771.2 506C814 506 857 519 878.5 525.5L900 532L900 601L878.5 601C857 601 814 601 771.2 601C728.3 601 685.7 601 642.8 601C600 601 557 601 514.2 601C471.3 601 428.7 601 385.8 601C343 601 300 601 257.2 601C214.3 601 171.7 601 128.8 601C86 601 43 601 21.5 601L0 601Z" fill="#8e2531"></path><path d="M0 555L21.5 551C43 547 86 539 128.8 536.2C171.7 533.3 214.3 535.7 257.2 534.8C300 534 343 530 385.8 535.3C428.7 540.7 471.3 555.3 514.2 558.3C557 561.3 600 552.7 642.8 551.3C685.7 550 728.3 556 771.2 561C814 566 857 570 878.5 572L900 574L900 601L878.5 601C857 601 814 601 771.2 601C728.3 601 685.7 601 642.8 601C600 601 557 601 514.2 601C471.3 601 428.7 601 385.8 601C343 601 300 601 257.2 601C214.3 601 171.7 601 128.8 601C86 601 43 601 21.5 601L0 601Z" fill="#550527"></path></svg>